<?xml version="1.0" encoding="utf-8"?>
<!-- Generator: Moho 12.5 build 22438 -->
<!DOCTYPE svg PUBLIC "-//W3C//DTD SVG 1.1//EN" "http://www.w3.org/Graphics/SVG/1.1/DTD/svg11.dtd">
<svg version="1.1" id="Frame_0" xmlns="http://www.w3.org/2000/svg" xmlns:xlink="http://www.w3.org/1999/xlink" width="2048px" height="2048px">
<g id="Layer_3">
<path fill="#00694a" fill-rule="evenodd" stroke="none" d="M 233.618 529.071 C 233.713 529.037 1180.661 187.491 1180.765 187.453 C 1180.852 187.502 1958.237 617.438 1958.315 617.481 C 1958.276 617.600 1570.068 1801.836 1570.030 1801.954 C 1569.903 1801.944 304.290 1700.487 304.164 1700.477 C 304.157 1700.360 233.625 529.188 233.618 529.071 Z"/>
</g>
<g id="Layer_4">
<g id="Layer_3">
<linearGradient id="0717f0d2-5cc2-438e-804c-8544adf726f3_0" x1="32.43%" y1="88.09%" x2="56.58%" y2="13.72%">
<stop offset="0.00%" style="stop-color:rgb(0,144,144);stop-opacity:1.00" />
<stop offset="100.00%" style="stop-color:rgb(0,217,220);stop-opacity:1.00" />
</linearGradient>
<path fill="url(#0717f0d2-5cc2-438e-804c-8544adf726f3_0)" fill-rule="evenodd" stroke="none" d="M 1010.833 33.351 C 1010.922 33.382 1868.103 332.286 1868.187 332.315 C 1868.151 332.401 1536.355 1125.474 1536.324 1125.547 C 1536.246 1125.522 735.311 869.554 735.229 869.528 C 735.255 869.451 1010.804 33.441 1010.833 33.351 Z"/>
<linearGradient id="0717f0d2-5cc2-438e-804c-8544adf726f3_1" x1="42.55%" y1="76.61%" x2="41.81%" y2="26.68%">
<stop offset="0.00%" style="stop-color:rgb(0,144,144);stop-opacity:1.00" />
<stop offset="100.00%" style="stop-color:rgb(0,217,220);stop-opacity:1.00" />
</linearGradient>
<path fill="url(#0717f0d2-5cc2-438e-804c-8544adf726f3_1)" fill-rule="evenodd" stroke="none" d="M 684.048 1024.813 C 684.129 1024.838 1474.468 1273.189 1474.545 1273.213 C 1474.521 1273.270 1250.020 1809.883 1249.998 1809.933 C 1249.920 1809.954 480.279 2008.217 480.190 2008.240 C 480.218 2008.206 752.877 1663.354 752.908 1663.314 C 752.880 1663.306 498.372 1588.238 498.346 1588.230 C 498.363 1588.177 684.029 1024.873 684.048 1024.813 Z"/>
</g>
<g id="Layer_3">
<g id="Layer_2">
<clipPath id="15158383-4e08-4d8a-8f93-e27b8eacc6d7">
<path fill="#000000" fill-rule="evenodd" stroke="none" d="M 181.409 640.148 C 181.433 640.143 420.360 594.041 420.384 594.037 C 420.353 593.997 108.046 198.246 108.015 198.207 C 108.078 198.217 742.739 307.208 742.802 307.218 C 742.805 307.195 769.220 73.002 769.223 72.978 C 769.265 73.016 1190.229 445.452 1190.271 445.489 C 1190.325 445.479 1732.796 340.810 1732.850 340.800 C 1732.859 340.933 1824.108 1676.022 1824.117 1676.156 C 1823.984 1676.179 491.841 1909.769 491.707 1909.793 C 491.676 1909.666 181.440 640.274 181.409 640.148 Z"/>
</clipPath>
<path fill="#000000" fill-rule="evenodd" stroke="none" d="M 181.409 640.148 C 181.433 640.143 420.360 594.041 420.384 594.037 C 420.353 593.997 108.046 198.246 108.015 198.207 C 108.078 198.217 742.739 307.208 742.802 307.218 C 742.805 307.195 769.220 73.002 769.223 72.978 C 769.265 73.016 1190.229 445.452 1190.271 445.489 C 1190.325 445.479 1732.796 340.810 1732.850 340.800 C 1732.859 340.933 1824.108 1676.022 1824.117 1676.156 C 1823.984 1676.179 491.841 1909.769 491.707 1909.793 C 491.676 1909.666 181.440 640.274 181.409 640.148 Z"/>
</g>
<g id="Layer_2">
<path fill="#220060" fill-rule="evenodd" stroke="none" d="M 1010.833 33.351 C 1010.922 33.382 1868.103 332.286 1868.187 332.315 C 1868.151 332.401 1536.355 1125.474 1536.324 1125.547 C 1536.246 1125.522 735.311 869.554 735.229 869.528 C 735.255 869.451 1010.804 33.441 1010.833 33.351 Z" clip-path="url(#15158383-4e08-4d8a-8f93-e27b8eacc6d7)"/>
<path fill="#220060" fill-rule="evenodd" stroke="none" d="M 684.048 1024.813 C 684.129 1024.838 1474.468 1273.189 1474.545 1273.213 C 1474.521 1273.270 1250.020 1809.883 1249.998 1809.933 C 1249.920 1809.954 480.279 2008.217 480.190 2008.240 C 480.218 2008.206 752.877 1663.354 752.908 1663.314 C 752.880 1663.306 498.372 1588.238 498.346 1588.230 C 498.363 1588.177 684.029 1024.873 684.048 1024.813 Z" clip-path="url(#15158383-4e08-4d8a-8f93-e27b8eacc6d7)"/>
</g>
</g>
<g id="Layer_3">
<path fill="#ffffff" fill-rule="evenodd" stroke="none" d="M 1414.591 645.116 C 1481.375 638.187 1521.461 761.712 1549.919 1036.017 C 1578.378 1310.321 1555.446 1440.384 1497.720 1446.373 C 1439.994 1452.362 1390.850 1329.777 1362.391 1055.473 C 1333.932 781.168 1347.806 652.045 1414.591 645.116 Z"/>
<path fill="#ffffff" fill-rule="evenodd" stroke="none" d="M 1045.302 1138.170 C 1045.302 1138.185 1058.608 1232.535 1064.300 1287.396 C 1092.759 1561.700 1069.826 1691.763 1012.100 1697.752 C 954.374 1703.741 905.230 1581.156 876.771 1306.852 C 869.087 1232.790 863.265 1118.954 863.262 1118.938 C 863.270 1118.890 1045.284 1138.116 1045.302 1138.170 Z"/>
</g>
</g>
</svg>
