<?xml version="1.0" encoding="utf-8"?>
<!-- Generator: Moho 12.5 build 22438 -->
<!DOCTYPE svg PUBLIC "-//W3C//DTD SVG 1.1//EN" "http://www.w3.org/Graphics/SVG/1.1/DTD/svg11.dtd">
<svg version="1.1" id="Frame_0" xmlns="http://www.w3.org/2000/svg" xmlns:xlink="http://www.w3.org/1999/xlink" width="2048px" height="2048px">
<g id="Layer_2">
<path fill="#ffffff" fill-rule="evenodd" stroke="none" d="M 938.110 33.351 C 938.198 33.382 1797.344 332.286 1797.428 332.315 C 1797.392 332.401 1470.808 1125.474 1470.778 1125.547 C 1470.700 1125.522 668.083 869.554 668.000 869.528 C 668.025 869.451 938.081 33.441 938.110 33.351 Z"/>
<path fill="#ffffff" fill-rule="evenodd" stroke="none" d="M 617.840 1024.813 C 617.921 1024.838 1409.891 1273.189 1409.969 1273.213 C 1409.946 1273.270 1188.970 1809.883 1188.949 1809.933 C 1188.870 1809.954 420.532 2008.217 420.444 2008.240 C 420.471 2008.206 690.864 1663.354 690.895 1663.314 C 690.867 1663.306 435.865 1588.238 435.840 1588.230 C 435.857 1588.177 617.820 1024.873 617.840 1024.813 Z"/>
</g>
</svg>
